<?xml version="1.0" encoding="UTF-8" standalone="no"?>
<!-- Created with Inkscape (http://www.inkscape.org/) -->

<svg
   width="256"
   height="256"
   viewBox="0 0 67.733333 67.733339"
   version="1.1"
   id="svg1"
   inkscape:version="1.3.2 (091e20ef0f, 2023-11-25, custom)"
   sodipodi:docname="drawing.svg"
   inkscape:export-filename="drawing.png"
   inkscape:export-xdpi="96"
   inkscape:export-ydpi="96"
   xmlns:inkscape="http://www.inkscape.org/namespaces/inkscape"
   xmlns:sodipodi="http://sodipodi.sourceforge.net/DTD/sodipodi-0.dtd"
   xmlns="http://www.w3.org/2000/svg"
   xmlns:svg="http://www.w3.org/2000/svg">
  <sodipodi:namedview
     id="namedview1"
     pagecolor="#ffffff"
     bordercolor="#000000"
     borderopacity="0.25"
     inkscape:showpageshadow="2"
     inkscape:pageopacity="0.0"
     inkscape:pagecheckerboard="0"
     inkscape:deskcolor="#d1d1d1"
     inkscape:document-units="mm"
     inkscape:zoom="1.4514286"
     inkscape:cx="154.33071"
     inkscape:cy="256.6437"
     inkscape:window-width="1080"
     inkscape:window-height="1851"
     inkscape:window-x="0"
     inkscape:window-y="0"
     inkscape:window-maximized="1"
     inkscape:current-layer="layer1" />
  <defs
     id="defs1" />
  <g
     inkscape:label="Layer 1"
     inkscape:groupmode="layer"
     id="layer1">
    <path
       style="fill:none;stroke:#a50404;stroke-width:3.34399;stroke-linejoin:round;stroke-dasharray:none;stroke-dashoffset:12.4619;stroke-opacity:1"
       d="m 16.281717,7.6441992 c -0.749611,0.2525054 0.631634,52.1900738 0.631634,52.1900738 0,0 7.74478,-9.030328 13.564566,-9.253011 C 35.068643,50.4056 48.092421,63.368524 50.119279,59.24572 53.619624,52.125729 52.893526,15.304576 52.893526,15.304576 53.319183,4.7497583 47.04899,3.5612491 37.965181,21.271906 35.981871,25.138758 26.860286,4.0808267 16.281717,7.6441992 Z"
       id="path1"
       sodipodi:nodetypes="scsscss"
       inkscape:label="Book" />
    <path
       fill-rule="evenodd"
       d="m 27.520263,25.849072 a 1.1216345,1.1216345 0 0 1 1.561796,0.277339 l 14.128972,20.230554 a 1.1216375,1.1216375 0 0 1 -1.839144,1.284454 L 27.242913,27.410866 a 1.1216345,1.1216345 0 0 1 0.27735,-1.561794 m -1.109381,6.247184 A 1.1216345,1.1216345 0 0 1 27.97268,32.3736 l 8.991161,12.873983 a 1.1216345,1.1216345 0 0 1 -1.839136,1.28445 L 26.133542,33.658049 a 1.1216345,1.1216345 0 0 1 0.27734,-1.561793 m 7.356567,-5.13781 a 1.1216345,1.1216345 0 0 1 1.561791,0.277348 l 8.991162,12.873983 a 1.1216347,1.1216347 0 0 1 -1.839139,1.284451 L 33.490102,28.520245 a 1.1216345,1.1216345 0 0 1 0.277347,-1.561799 m -9.108166,10.465422 a 1.1216345,1.1216345 0 0 1 1.561792,0.277348 l 5.137806,7.356563 a 1.1216347,1.1216347 0 0 1 -1.839137,1.284449 l -5.137806,-7.356562 a 1.1216345,1.1216345 0 0 1 0.277345,-1.561798 m 14.71312,-10.275611 a 1.1216345,1.1216345 0 0 1 1.5618,0.277344 l 5.137807,7.356561 a 1.1216345,1.1216345 0 0 1 -1.839139,1.28445 L 39.095065,28.71005 a 1.1216345,1.1216345 0 0 1 0.277338,-1.561793 m -17.10695,14.68366 a 1.1216345,1.1216345 0 0 1 1.561795,0.277339 l 2.568905,3.678284 a 1.1216375,1.1216375 0 0 1 -1.839146,1.284455 l -2.568906,-3.678283 a 1.1216345,1.1216345 0 0 1 0.277352,-1.561795 M 44.335142,26.418495 a 1.1216345,1.1216345 0 0 1 1.561794,0.277339 l 2.568906,3.678283 a 1.1216374,1.1216374 0 0 1 -1.839144,1.284455 l -2.568906,-3.678283 a 1.1216345,1.1216345 0 0 1 0.27735,-1.561794"
       id="path1-9"
       style="stroke-width:0.15;fill:#7af7ac;fill-opacity:1;stroke:#000000;stroke-opacity:1;stroke-dasharray:none" />
  </g>
</svg>
